Phish
November 21, 1997
Hampton Coliseum
Hampton, VA

source:
(FOB) Schoeps mk4 > kc5 > cmc5 > Sonosax SX-M2 > Sony D3 (@ 48 kHz)

transfer:
Tascam DA-20MKII > Tascam HD-P2 > CF card > usb 2.0 > pc > WaveLab 5.01b (fades, patch) > r8brain v1.9 (resample to 44.1 kHz) > CD Wave v1.96.1 > FLAC v1.2.1 (Level 8)

FLAC tags added with metaflac v1.2.1

recorded by Eliot Byron
transferred by Jason Sobel (jasonsobel@gmail.com)
seeded January 25, 2008

notes:
The original 48 kHz .wav files from the DAT transfer have been archived, and are available upon request.
Big thanks to Eliot for letting me borrow the master DATs!

Disc 1 - [72:10]
Set I
01 - [00:56] - intro
02 - [16:59] - Emotional Rescue *
03 - [13:44] - Split Open and Melt
04 - [03:30] - Beauty of My Dreams
05 - [04:45] - Dogs Stole Things
06 - [09:45] - Punch You in the Eye ->
07 - [03:21] - Lawn Boy
08 - [09:11] - Chalk Dust Torture
09 - [10:00] - Prince Caspian

Disc 2 - [73:31]
Set II
01 - [00:37] - intro
02 - [14:45] - Ghost ->
03 - [25:54] - AC/DC Bag ->
04 - [12:21] - Slave to the Traffic Light
05 - [06:40] - Loving Cup
06 - [02:38] - encore break
07 - [10:37] - Guyute

* debut

patch notes:
right at the beginning of "Punch You in the Eye", 
there was a very small sport of digi-noise on Eliot's DAT.
I used the following source to patch over the spot with digi-noise:

(FOB) Schoeps CMBI/mk4 > HHb mic pres > HHb DAT (@ 48 kHz)
recorded by Barry the Blade
http://db.etree.org/shn/87303

Barry's source was used from [00:02] to [00:04]
The patch is barely noticeable.

---------------------------------------------------------------------------------

SHNtool output:

    length     expanded size   cdr  WAVE problems filename
     0:55.56        9833756    ---   --   ---xx   ph1997-11-21d1t01.flac
    16:58.52      179697548    ---   --   ---xx   ph1997-11-21d1t02.flac
    13:43.68      145337180    ---   --   ---xx   ph1997-11-21d1t03.flac
     3:29.63       37015820    ---   --   ---xx   ph1997-11-21d1t04.flac
     4:44.71       50264636    ---   --   ---xx   ph1997-11-21d1t05.flac
     9:44.65      103170524    ---   --   ---xx   ph1997-11-21d1t06.flac
     3:20.61       35423516    ---   --   ---xx   ph1997-11-21d1t07.flac
     9:11.01       97198796    ---   --   ---xx   ph1997-11-21d1t08.flac
    10:00.13      105870620    ---   --   ---xx   ph1997-11-21d1t09.flac
     0:37.26        6587996    ---   --   ---xx   ph1997-11-21d2t01.flac
    14:44.59      156076412    ---   --   ---xx   ph1997-11-21d2t02.flac
    25:53.68      274109180    ---   --   ---xx   ph1997-11-21d2t03.flac
    12:20.52      130658348    ---   --   ---xx   ph1997-11-21d2t04.flac
     6:39.67       70541228    ---   --   ---xx   ph1997-11-21d2t05.flac
     2:37.37       27781868    ---   --   ---xx   ph1997-11-21d2t06.flac
    10:36.66      112345676    ---   --   ---xx   ph1997-11-21d2t07.flac
   145:41.00     1541913104 B                     (totals for 16 files, 0.5069 overall compression ratio)
